<svg xmlns="http://www.w3.org/2000/svg" viewBox="0 0 120 120" fill="none">
  <!-- Background Circle -->
  <circle cx="60" cy="60" r="58" fill="#10b981" fill-opacity="0.1"/>
  
  <!-- QR Code Pattern (Simplified) -->
  <rect x="30" y="30" width="20" height="20" fill="#10b981"/>
  <rect x="30" y="52" width="8" height="8" fill="#10b981"/>
  <rect x="42" y="52" width="8" height="8" fill="#10b981"/>
  <rect x="30" y="64" width="20" height="8" fill="#10b981"/>
  
  <rect x="70" y="30" width="8" height="20" fill="#10b981"/>
  <rect x="82" y="30" width="8" height="8" fill="#10b981"/>
  <rect x="82" y="42" width="8" height="8" fill="#10b981"/>
  
  <rect x="70" y="64" width="20" height="8" fill="#10b981"/>
  <rect x="70" y="76" width="8" height="8" fill="#10b981"/>
  <rect x="82" y="76" width="8" height="8" fill="#10b981"/>
  
  <!-- Payment Arrow -->
  <path d="M45 60 L75 60 M70 55 L75 60 L70 65" stroke="#10b981" stroke-width="3" stroke-linecap="round" stroke-linejoin="round"/>
  
  <!-- Shield Badge -->
  <path d="M60 20 L75 25 L75 40 C75 50 70 55 60 58 C50 55 45 50 45 40 L45 25 Z" fill="#10b981" fill-opacity="0.2" stroke="#10b981" stroke-width="2"/>
  <circle cx="60" cy="35" r="3" fill="#10b981"/>
</svg>

